HIERARCHY
ROOT Hips
{
	OFFSET 0.00000 0.00000 0.00000
	CHANNELS 6 Xposition Yposition Zposition Zrotation Yrotation Xrotation 
	JOINT LHipJoint
	{
		OFFSET 0 0 0
		CHANNELS 3 Zrotation Yrotation Xrotation
		JOINT LeftUpLeg
		{
			OFFSET 1.58895 -1.83665 0.71753
			CHANNELS 3 Zrotation Yrotation Xrotation
			JOINT LeftLeg
			{
				OFFSET 2.50528 -6.88321 0.00000
				CHANNELS 3 Zrotation Yrotation Xrotation
				JOINT LeftFoot
				{
					OFFSET 2.63244 -7.23257 0.00000
					CHANNELS 3 Zrotation Yrotation Xrotation
					JOINT LeftToeBase
					{
						OFFSET 0.23691 -0.65090 1.72750
						CHANNELS 3 Zrotation Yrotation Xrotation
						End Site
						{
							OFFSET 0.00000 -0.00000 0.92561
						}
					}
				}
			}
		}
	}
	JOINT RHipJoint
	{
		OFFSET 0 0 0
		CHANNELS 3 Zrotation Yrotation Xrotation
		JOINT RightUpLeg
		{
			OFFSET -1.51435 -1.83665 0.71753
			CHANNELS 3 Zrotation Yrotation Xrotation
			JOINT RightLeg
			{
				OFFSET -2.54551 -6.99375 0.00000
				CHANNELS 3 Zrotation Yrotation Xrotation
				JOINT RightFoot
				{
					OFFSET -2.66027 -7.30903 0.00000
					CHANNELS 3 Zrotation Yrotation Xrotation
					JOINT RightToeBase
					{
						OFFSET -0.22981 -0.63138 2.03959
						CHANNELS 3 Zrotation Yrotation Xrotation
						End Site
						{
							OFFSET -0.00000 -0.00000 1.07060
						}
					}
				}
			}
		}
	}
	JOINT LowerBack
	{
		OFFSET 0 0 0
		CHANNELS 3 Zrotation Yrotation Xrotation
		JOINT Spine
		{
			OFFSET -0.02651 1.86275 -0.11152
			CHANNELS 3 Zrotation Yrotation Xrotation
			JOINT Spine1
			{
				OFFSET 0.01019 1.86224 0.04087
				CHANNELS 3 Zrotation Yrotation Xrotation
				JOINT Neck
				{
					OFFSET 0 0 0
					CHANNELS 3 Zrotation Yrotation Xrotation
					JOINT Neck1
					{
						OFFSET -0.01926 1.80512 0.08867
						CHANNELS 3 Zrotation Yrotation Xrotation
						JOINT Head
						{
							OFFSET 0.05516 1.76451 -0.38475
							CHANNELS 3 Zrotation Yrotation Xrotation
							End Site
							{
								OFFSET 0.01592 1.82587 -0.14001
							}
						}
					}
				}
				JOINT LeftShoulder
				{
					OFFSET 0 0 0
					CHANNELS 3 Zrotation Yrotation Xrotation
					JOINT LeftArm
					{
						OFFSET 3.47116 1.51376 0.14491
						CHANNELS 3 Zrotation Yrotation Xrotation
						JOINT LeftForeArm
						{
							OFFSET 4.78095 -0.00000 0.00000
							CHANNELS 3 Zrotation Yrotation Xrotation
							JOINT LeftHand
							{
								OFFSET 3.58615 -0.00000 -0.00000
								CHANNELS 3 Zrotation Yrotation Xrotation
								JOINT LeftFingerBase
								{
									OFFSET 0 0 0
									CHANNELS 3 Zrotation Yrotation Xrotation
									JOINT LeftHandIndex1
									{
										OFFSET 0.65981 -0.00000 0.00000
										CHANNELS 3 Zrotation Yrotation Xrotation
										End Site
										{
											OFFSET 0.53196 -0.00000 0.00000
										}
									}
								}
								JOINT LThumb
								{
									OFFSET 0 0 0
									CHANNELS 3 Zrotation Yrotation Xrotation
									End Site
									{
										OFFSET 0.54008 -0.00000 0.54008
									}
								}
							}
						}
					}
				}
				JOINT RightShoulder
				{
					OFFSET 0 0 0
					CHANNELS 3 Zrotation Yrotation Xrotation
					JOINT RightArm
					{
						OFFSET -3.31725 1.61216 0.35156
						CHANNELS 3 Zrotation Yrotation Xrotation
						JOINT RightForeArm
						{
							OFFSET -4.48913 -0.00000 0.00000
							CHANNELS 3 Zrotation Yrotation Xrotation
							JOINT RightHand
							{
								OFFSET -3.70510 -0.00000 0.00000
								CHANNELS 3 Zrotation Yrotation Xrotation
								JOINT RightFingerBase
								{
									OFFSET 0 0 0
									CHANNELS 3 Zrotation Yrotation Xrotation
									JOINT RightHandIndex1
									{
										OFFSET -0.44914 -0.00000 0.00000
										CHANNELS 3 Zrotation Yrotation Xrotation
										End Site
										{
											OFFSET -0.36211 -0.00000 0.00000
										}
									}
								}
								JOINT RThumb
								{
									OFFSET 0 0 0
									CHANNELS 3 Zrotation Yrotation Xrotation
									End Site
									{
										OFFSET -0.36763 -0.00000 0.36763
									}
								}
							}
						}
					}
				}
			}
		}
	}
}
MOTION
Frames: 6
Frame Time: .0083333
-0.4348 18.0480 5.7915 -1.4431 -31.5002 1.8442 0.0000 0.0000 0.0000 -14.5780 22.2875 7.5866 0.0000 0.0000 0.0000 0.9201 7.9387 -22.6601 0.1004 2.0438 5.6268 0.0000 0.0000 0.0000 13.4659 13.2130 14.8792 -1.0788 6.6020 -18.5416 0.1434 -7.6039 1.0572 -0.0000 -0.0155 0.0427 -1.9787 -8.4644 2.6768 1.6286 -11.3356 -1.3555 3.1964 -5.6217 -2.1693 15.4726 4.5111 -9.9792 4.1241 1.1549 28.8460 -0.9655 2.4573 11.3571 0.0000 -0.0000 0.0000 -57.2215 -55.1213 -28.8914 33.6148 -43.7973 -13.8457 -0.0000 0.0000 -73.0964 33.5048 2.1559 1.4266 -7.1250 0.0000 -0.0000 5.5951 32.5304 -1.7156 0.0000 -0.0000 0.0000 6.6212 35.2002 43.0175 -156.7408 34.3711 -112.7159 0.0000 -0.0000 -90.8297 -4.6305 -55.8824 3.8362 7.1250 -0.0000 -0.0000 79.7155 -73.6215 -62.5050
-0.4365 18.0484 5.7933 -1.4414 -31.4728 1.8757 0.0000 0.0000 0.0000 -14.5852 22.2635 7.5544 0.0000 -0.0000 -0.0000 0.9179 7.9401 -22.6414 0.1007 2.0459 5.6326 0.0000 0.0000 0.0000 13.4625 13.2292 14.8718 -1.0800 6.6056 -18.5521 0.1446 -7.6189 1.0311 -0.0000 0.0214 -0.0589 -1.9885 -8.4346 2.6909 1.5918 -11.2971 -1.3769 3.1687 -5.6013 -2.2073 15.6493 4.5043 -9.9624 4.0114 1.1424 28.8502 -1.0368 2.4574 11.3601 0.0000 -0.0000 0.0000 -57.1761 -55.1413 -28.7919 33.5885 -43.7775 -13.8275 -0.0000 0.0000 -73.1299 33.5497 2.1433 1.4206 -7.1250 0.0000 -0.0000 5.6306 32.5163 -1.7285 0.0000 -0.0000 0.0000 6.8735 35.1213 43.1754 -156.7033 34.4117 -112.6947 0.0000 -0.0000 -90.7245 -4.4367 -56.0041 3.6807 7.1250 -0.0000 -0.0000 80.1798 -73.5690 -62.8994
-0.4381 18.0497 5.7957 -1.4455 -31.4372 1.9111 0.0000 0.0000 0.0000 -14.5866 22.2310 7.5226 0.0000 -0.0000 -0.0000 0.9149 7.9468 -22.6208 0.0930 1.9672 5.4150 0.0000 0.0000 0.0000 13.4643 13.2386 14.8503 -1.0792 6.6032 -18.5450 0.1457 -7.6271 0.9962 -0.0000 0.0295 -0.0811 -1.9447 -8.3715 2.6166 1.4780 -11.2116 -1.3313 3.0144 -5.5610 -2.1553 15.9135 4.4488 -10.0830 3.9251 1.0016 28.8754 -1.1265 2.4148 11.3948 0.0000 -0.0000 0.0000 -57.0316 -55.2671 -28.5634 33.4892 -43.7027 -13.7589 -0.0000 0.0000 -73.2155 33.5919 2.0376 1.3528 -7.1250 0.0000 -0.0000 5.6588 32.3910 -1.7544 0.0000 -0.0000 0.0000 7.1709 34.9021 43.2442 -156.6916 34.4244 -112.6881 0.0000 -0.0000 -90.6544 -4.1251 -56.1405 3.4274 7.1250 -0.0000 -0.0000 80.7210 -73.4760 -63.3238
-0.4402 18.0504 5.7979 -1.4528 -31.4313 1.9354 0.0000 0.0000 0.0000 -14.5809 22.2316 7.5012 0.0000 0.0000 0.0000 0.9093 7.9702 -22.5898 0.0834 1.8625 5.1257 0.0000 0.0000 0.0000 13.4729 13.2587 14.8345 -1.0770 6.5967 -18.5260 0.1466 -7.6340 0.9691 -0.0000 -0.0298 0.0817 -1.9223 -8.3188 2.5594 1.4139 -11.1404 -1.2935 2.9244 -5.5273 -2.1059 16.0252 4.4033 -10.1435 3.8807 0.9176 28.8379 -1.1710 2.3824 11.3903 0.0000 0.0000 0.0000 -56.9705 -55.3642 -28.4204 33.4687 -43.6872 -13.7447 -0.0000 0.0000 -73.2941 33.5935 1.9545 1.2978 -7.1250 0.0000 -0.0000 5.6555 32.2917 -1.7669 0.0000 0.0000 0.0000 7.3283 34.6923 43.2750 -156.7180 34.3957 -112.7030 0.0000 -0.0000 -90.6583 -3.7558 -56.1609 3.1209 7.1250 -0.0000 -0.0000 80.8860 -73.3481 -63.3371
-0.4417 18.0514 5.8001 -1.4986 -31.4353 2.0027 0.0000 0.0000 0.0000 -14.5512 22.2379 7.4567 0.0000 -0.0000 -0.0000 0.9092 7.9542 -22.5764 0.0853 1.8841 5.1855 0.0000 0.0000 0.0000 13.5118 13.3143 14.8075 -1.0759 6.5933 -18.5160 0.1487 -7.6631 0.9265 -0.0001 -0.0592 0.1627 -1.8837 -8.3036 2.5026 1.4104 -11.1180 -1.2882 2.8909 -5.5173 -2.0781 15.9486 4.3916 -10.1163 3.9439 0.9141 28.7649 -1.1371 2.3755 11.3538 0.0000 -0.0000 0.0000 -56.9438 -55.3844 -28.4231 33.5101 -43.7185 -13.7733 -0.0000 0.0000 -73.3421 33.6102 1.9222 1.2771 -7.1250 0.0000 -0.0000 5.6671 32.2534 -1.7759 0.0000 -0.0000 0.0000 7.4726 34.6311 43.3439 -156.7400 34.3719 -112.7155 0.0000 -0.0000 -90.7142 -3.5505 -56.0487 2.9464 7.1250 -0.0000 -0.0000 80.5686 -73.2613 -62.9222
-0.4417 18.0528 5.8032 -1.5140 -31.4374 2.0485 0.0000 0.0000 0.0000 -14.5540 22.2472 7.4231 0.0000 0.0000 0.0000 0.9139 7.9052 -22.5793 0.0916 1.9519 5.3728 0.0000 0.0000 0.0000 13.5141 13.3282 14.7794 -1.0761 6.5940 -18.5181 0.1488 -7.6610 0.9182 -0.0000 -0.0161 0.0443 -1.8726 -8.3035 2.4499 1.4136 -11.1166 -1.2872 2.8795 -5.5174 -2.0494 15.7800 4.3895 -10.0538 4.0725 0.9323 28.6921 -1.0624 2.3756 11.3093 -0.0000 -0.0000 0.0000 -56.8938 -55.3922 -28.4743 33.5391 -43.7403 -13.7934 -0.0000 0.0000 -73.3381 33.6650 1.9049 1.2683 -7.1250 0.0000 -0.0000 5.7103 32.2336 -1.7922 -0.0000 -0.0000 0.0000 7.5902 34.6932 43.3948 -156.7569 34.3536 -112.7250 0.0000 -0.0000 -90.7919 -3.6243 -55.9179 3.0030 7.1250 -0.0000 -0.0000 80.1144 -73.2697 -62.4850
